<?xml version="1.0" encoding="UTF-8"?>
<svg xmlns="http://www.w3.org/2000/svg" xmlns:xlink="http://www.w3.org/1999/xlink"
     width="300" height="300" viewBox="0 0 300 300">
<defs>
</defs>
<g id="box_base" fill="none" stroke="black" stroke-width="0.1">
<path d="M4.9,4.9 L4.9,10.9 V14.1 H7.9 V19.9 H4.9 V26.1 H7.9 V31.9 H4.9 V38.1 H7.9 V43.9 H4.9 L4.9,53.1 L14.9,53.1 H17.9 V56.1 H24.1 V53.1 H29.9 V56.1 H36.1 V53.1 H41.9 V56.1 H48.1 V53.1 H53.9 V56.1 H60.1 V53.1 H65.9 V56.1 H72.1 V53.1 H77.9 V56.1 H84.1 V53.1 H89.9 V56.1 H96.1 V53.1 L109.1,53.1 L109.1,46.9 V43.9 H106.1 V38.1 H109.1 V31.9 H106.1 V26.1 H109.1 V19.9 H106.1 V14.1 H109.1 L109.1,4.9 L99.1,4.9 H96.1 V1.9 H89.9 V4.9 H84.1 V1.9 H77.9 V4.9 H72.1 V1.9 H65.9 V4.9 H60.1 V1.9 H53.9 V4.9 H48.1 V1.9 H41.9 V4.9 H36.1 V1.9 H29.9 V4.9 H24.1 V1.9 H17.9 V4.9 L4.9,4.9 Z" />
<text x="52.0" y="29.0" font-size="3" stroke="blue">Box Base</text>
</g>
<g id="box_side" fill="none" stroke="black" stroke-width="0.1">
<path d="M114.9,4.9 L114.9,10.9 V13.9 H111.9 V20.1 H114.9 V25.9 H111.9 V32.1 H114.9 V37.9 H111.9 V44.1 H114.9 L114.9,53.1 L122.4,53.1 H125.4 V56.1 H131.6 V53.1 L142.1,53.1 L142.1,4.9 L134.6,4.9 H131.6 V1.9 H125.4 V4.9 L114.9,4.9 Z" />
<text x="123.5" y="29.0" font-size="3" stroke="blue">Box Side</text>
</g>
<g id="box_side" fill="none" stroke="black" stroke-width="0.1">
<path d="M149.9,4.9 L149.9,10.9 V13.9 H146.9 V20.1 H149.9 V25.9 H146.9 V32.1 H149.9 V37.9 H146.9 V44.1 H149.9 L149.9,53.1 L157.4,53.1 H160.4 V56.1 H166.6 V53.1 L177.1,53.1 L177.1,4.9 L169.6,4.9 H166.6 V1.9 H160.4 V4.9 L149.9,4.9 Z" />
<text x="158.5" y="29.0" font-size="3" stroke="blue">Box Side</text>
</g>
<g id="top_rail" fill="none" stroke="black" stroke-width="0.1">
<path d="M181.9,4.9 L181.9,8.0 L193.4,8.0 H196.4 V11.0 H202.6 V8.0 H208.4 V11.0 H214.6 V8.0 H220.4 V11.0 H226.6 V8.0 H232.4 V11.0 H238.6 V8.0 H244.4 V11.0 H250.6 V8.0 H256.4 V11.0 H262.6 V8.0 H268.4 V11.0 H274.6 V8.0 L289.1,8.0 L289.1,4.9 L181.9,4.9 Z" />
</g>
<g id="top_rail" fill="none" stroke="black" stroke-width="0.1">
<path d="M181.9,11.9 L181.9,15.0 L193.4,15.0 H196.4 V18.0 H202.6 V15.0 H208.4 V18.0 H214.6 V15.0 H220.4 V18.0 H226.6 V15.0 H232.4 V18.0 H238.6 V15.0 H244.4 V18.0 H250.6 V15.0 H256.4 V18.0 H262.6 V15.0 H268.4 V18.0 H274.6 V15.0 L289.1,15.0 L289.1,11.9 L181.9,11.9 Z" />
</g>
<g id="top_rail" fill="none" stroke="black" stroke-width="0.1">
<path d="M181.9,18.9 L181.9,22.0 L193.4,22.0 H196.4 V25.0 H202.6 V22.0 H208.4 V25.0 H214.6 V22.0 H220.4 V25.0 H226.6 V22.0 H232.4 V25.0 H238.6 V22.0 H244.4 V25.0 H250.6 V22.0 H256.4 V25.0 H262.6 V22.0 H268.4 V25.0 H274.6 V22.0 L289.1,22.0 L289.1,18.9 L181.9,18.9 Z" />
</g>
<g id="top_rail" fill="none" stroke="black" stroke-width="0.1">
<path d="M181.9,25.9 L181.9,29.0 L193.4,29.0 H196.4 V32.0 H202.6 V29.0 H208.4 V32.0 H214.6 V29.0 H220.4 V32.0 H226.6 V29.0 H232.4 V32.0 H238.6 V29.0 H244.4 V32.0 H250.6 V29.0 H256.4 V32.0 H262.6 V29.0 H268.4 V32.0 H274.6 V29.0 L289.1,29.0 L289.1,25.9 L181.9,25.9 Z" />
</g>
<g id="side_rail" fill="none" stroke="black" stroke-width="0.1">
<path d="M181.9,32.9 L181.9,36.0 L187.9,36.0 H190.9 V39.0 H197.1 V36.0 H202.9 V39.0 H209.1 V36.0 L218.1,36.0 L218.1,32.9 L181.9,32.9 Z" />
</g>
<g id="side_rail" fill="none" stroke="black" stroke-width="0.1">
<path d="M181.9,39.9 L181.9,43.0 L187.9,43.0 H190.9 V46.0 H197.1 V43.0 H202.9 V46.0 H209.1 V43.0 L218.1,43.0 L218.1,39.9 L181.9,39.9 Z" />
</g>
<g id="side_rail" fill="none" stroke="black" stroke-width="0.1">
<path d="M219.9,32.9 L219.9,36.0 L225.9,36.0 H228.9 V39.0 H235.1 V36.0 H240.9 V39.0 H247.1 V36.0 L256.1,36.0 L256.1,32.9 L219.9,32.9 Z" />
</g>
<g id="side_rail" fill="none" stroke="black" stroke-width="0.1">
<path d="M219.9,39.9 L219.9,43.0 L225.9,43.0 H228.9 V46.0 H235.1 V43.0 H240.9 V46.0 H247.1 V43.0 L256.1,43.0 L256.1,39.9 L219.9,39.9 Z" />
</g>
<g id="tennon" fill="none" stroke="green" stroke-width="0.1">
<rect x="159.9" y="159.9" width="9.2" height="9.2" stroke="green" />
</g>
<g id="tennon" fill="none" stroke="green" stroke-width="0.1">
<rect x="169.9" y="159.9" width="9.2" height="9.2" stroke="green" />
</g>
<g id="tennon" fill="none" stroke="green" stroke-width="0.1">
<rect x="179.9" y="159.9" width="9.2" height="9.2" stroke="green" />
</g>
<g id="tennon" fill="none" stroke="green" stroke-width="0.1">
<rect x="189.9" y="159.9" width="9.2" height="9.2" stroke="green" />
</g>
<g id="tennon" fill="none" stroke="green" stroke-width="0.1">
<rect x="159.9" y="169.9" width="9.2" height="9.2" stroke="green" />
</g>
<g id="tennon" fill="none" stroke="green" stroke-width="0.1">
<rect x="169.9" y="169.9" width="9.2" height="9.2" stroke="green" />
</g>
<g id="tennon" fill="none" stroke="green" stroke-width="0.1">
<rect x="179.9" y="169.9" width="9.2" height="9.2" stroke="green" />
</g>
<g id="tennon" fill="none" stroke="green" stroke-width="0.1">
<rect x="189.9" y="169.9" width="9.2" height="9.2" stroke="green" />
</g>
<g id="back" fill="none" stroke="black" stroke-width="0.1">
<rect x="5" y="60" width="122.0" height="48.0" stroke="black" />
<rect x="8.0" y="69.0" width="2.9" height="36.0" stroke="red" />
<rect x="121.0" y="63.0" width="2.9" height="36.0" stroke="red" />
<rect x="11.0" y="63.0" width="107.0" height="2.9" stroke="red" />
<rect x="14.0" y="102.0" width="107.0" height="2.9" stroke="red" />
<rect x="14.0" y="69.0" width="3.0" height="27.0" stroke="red" />
<rect x="115.0" y="69.0" width="3.0" height="27.0" stroke="red" />
<rect x="14.0" y="96.0" width="104.0" height="3.0" stroke="red" />
<rect x="14.1" y="79.6" width="2.8" height="5.8" stroke="black" />
<rect x="115.1" y="79.6" width="2.8" height="5.8" stroke="black" />
<rect x="27.1" y="96.1" width="5.8" height="2.8" stroke="black" />
<rect x="39.1" y="96.1" width="5.8" height="2.8" stroke="black" />
<rect x="51.1" y="96.1" width="5.8" height="2.8" stroke="black" />
<rect x="63.1" y="96.1" width="5.8" height="2.8" stroke="black" />
<rect x="75.1" y="96.1" width="5.8" height="2.8" stroke="black" />
<rect x="87.1" y="96.1" width="5.8" height="2.8" stroke="black" />
<rect x="99.1" y="96.1" width="5.8" height="2.8" stroke="black" />
<rect x="25.6" y="63.1" width="5.8" height="2.8" stroke="black" />
<rect x="28.6" y="102.1" width="5.8" height="2.8" stroke="black" />
<rect x="37.6" y="63.1" width="5.8" height="2.8" stroke="black" />
<rect x="40.6" y="102.1" width="5.8" height="2.8" stroke="black" />
<rect x="49.6" y="63.1" width="5.8" height="2.8" stroke="black" />
<rect x="52.6" y="102.1" width="5.8" height="2.8" stroke="black" />
<rect x="61.6" y="63.1" width="5.8" height="2.8" stroke="black" />
<rect x="64.6" y="102.1" width="5.8" height="2.8" stroke="black" />
<rect x="73.6" y="63.1" width="5.8" height="2.8" stroke="black" />
<rect x="76.6" y="102.1" width="5.8" height="2.8" stroke="black" />
<rect x="85.6" y="63.1" width="5.8" height="2.8" stroke="black" />
<rect x="88.6" y="102.1" width="5.8" height="2.8" stroke="black" />
<rect x="97.6" y="63.1" width="5.8" height="2.8" stroke="black" />
<rect x="100.6" y="102.1" width="5.8" height="2.8" stroke="black" />
<rect x="8.1" y="78.1" width="2.8" height="5.8" stroke="black" />
<rect x="121.1" y="72.1" width="2.8" height="5.8" stroke="black" />
<rect x="8.1" y="90.1" width="2.8" height="5.8" stroke="black" />
<rect x="121.1" y="84.1" width="2.8" height="5.8" stroke="black" />
<text x="53.5" y="78.0" font-size="3" stroke="blue">Back</text>
</g>
<g id="front" fill="none" stroke="black" stroke-width="0.1">
<rect x="130" y="60" width="122.0" height="48.0" stroke="black" />
<rect x="133.0" y="63.0" width="2.9" height="36.0" stroke="red" />
<rect x="246.0" y="69.0" width="2.9" height="36.0" stroke="red" />
<rect x="139.0" y="63.0" width="107.0" height="2.9" stroke="red" />
<rect x="136.0" y="102.0" width="107.0" height="2.9" stroke="red" />
<rect x="139.0" y="69.0" width="3.0" height="27.0" stroke="red" />
<rect x="240.0" y="69.0" width="3.0" height="27.0" stroke="red" />
<rect x="139.0" y="96.0" width="104.0" height="3.0" stroke="red" />
<rect x="139.1" y="79.6" width="2.8" height="5.8" stroke="black" />
<rect x="240.1" y="79.6" width="2.8" height="5.8" stroke="black" />
<rect x="152.1" y="96.1" width="5.8" height="2.8" stroke="black" />
<rect x="164.1" y="96.1" width="5.8" height="2.8" stroke="black" />
<rect x="176.1" y="96.1" width="5.8" height="2.8" stroke="black" />
<rect x="188.1" y="96.1" width="5.8" height="2.8" stroke="black" />
<rect x="200.1" y="96.1" width="5.8" height="2.8" stroke="black" />
<rect x="212.1" y="96.1" width="5.8" height="2.8" stroke="black" />
<rect x="224.1" y="96.1" width="5.8" height="2.8" stroke="black" />
<rect x="153.6" y="63.1" width="5.8" height="2.8" stroke="black" />
<rect x="150.6" y="102.1" width="5.8" height="2.8" stroke="black" />
<rect x="165.6" y="63.1" width="5.8" height="2.8" stroke="black" />
<rect x="162.6" y="102.1" width="5.8" height="2.8" stroke="black" />
<rect x="177.6" y="63.1" width="5.8" height="2.8" stroke="black" />
<rect x="174.6" y="102.1" width="5.8" height="2.8" stroke="black" />
<rect x="189.6" y="63.1" width="5.8" height="2.8" stroke="black" />
<rect x="186.6" y="102.1" width="5.8" height="2.8" stroke="black" />
<rect x="201.6" y="63.1" width="5.8" height="2.8" stroke="black" />
<rect x="198.6" y="102.1" width="5.8" height="2.8" stroke="black" />
<rect x="213.6" y="63.1" width="5.8" height="2.8" stroke="black" />
<rect x="210.6" y="102.1" width="5.8" height="2.8" stroke="black" />
<rect x="225.6" y="63.1" width="5.8" height="2.8" stroke="black" />
<rect x="222.6" y="102.1" width="5.8" height="2.8" stroke="black" />
<rect x="133.1" y="72.1" width="2.8" height="5.8" stroke="black" />
<rect x="246.1" y="78.1" width="2.8" height="5.8" stroke="black" />
<rect x="133.1" y="84.1" width="2.8" height="5.8" stroke="black" />
<rect x="246.1" y="90.1" width="2.8" height="5.8" stroke="black" />
<text x="178.5" y="78.0" font-size="3" stroke="blue">Front</text>
</g>
<g id="left_hold" fill="none" stroke="black" stroke-width="0.1">
<rect x="5" y="110" width="47.9" height="33.0" stroke="black" />
<rect x="24.45" y="113.0" width="9.0" height="3.0" stroke="green" />
<rect x="24.45" y="137.0" width="9.0" height="3.0" stroke="green" />
<text x="23.95" y="126.5" font-size="3" stroke="blue">L hold</text>
</g>
<g id="left_run" fill="none" stroke="black" stroke-width="0.1">
<rect x="60" y="110" width="42.0" height="39.0" stroke="black" />
<rect x="57.0" y="113.0" width="47.9" height="33.0" stroke="red" />
<rect x="76.5" y="116.0" width="9.0" height="3.0" stroke="green" />
<rect x="76.5" y="140.0" width="9.0" height="3.0" stroke="green" />
<text x="76.0" y="129.5" font-size="3" stroke="blue">L run</text>
</g>
<g id="left_out" fill="none" stroke="black" stroke-width="0.1">
<rect x="110" y="110" width="47.9" height="48.0" stroke="black" />
<rect x="113.0" y="113.0" width="42.0" height="39.0" stroke="red" />
<rect x="110" y="116.0" width="47.9" height="33.0" stroke="red" />
<rect x="129.45" y="119.0" width="9.0" height="3.0" stroke="green" />
<rect x="129.45" y="143.0" width="9.0" height="3.0" stroke="green" />
<text x="128.95" y="134.0" font-size="3" stroke="blue">L out</text>
</g>
<g id="right_hold" fill="none" stroke="black" stroke-width="0.1">
<rect x="110" y="160" width="47.9" height="33.0" stroke="black" />
<rect x="129.45" y="163.0" width="9.0" height="3.0" stroke="green" />
<rect x="129.45" y="187.0" width="9.0" height="3.0" stroke="green" />
<text x="128.95" y="176.5" font-size="3" stroke="blue">R hold</text>
</g>
<g id="right_run" fill="none" stroke="black" stroke-width="0.1">
<rect x="60" y="150" width="42.0" height="39.0" stroke="black" />
<rect x="57.0" y="153.0" width="47.9" height="33.0" stroke="red" />
<rect x="76.5" y="156.0" width="9.0" height="3.0" stroke="green" />
<rect x="76.5" y="180.0" width="9.0" height="3.0" stroke="green" />
<text x="76.0" y="169.5" font-size="3" stroke="blue">R run</text>
</g>
<g id="right_out" fill="none" stroke="black" stroke-width="0.1">
<rect x="5" y="145" width="47.9" height="45.0" stroke="black" />
<rect x="8.0" y="148.0" width="42.0" height="39.0" stroke="red" />
<rect x="5" y="151.0" width="47.9" height="33.0" stroke="red" />
<rect x="24.45" y="154.0" width="9.0" height="3.0" stroke="green" />
<rect x="24.45" y="178.0" width="9.0" height="3.0" stroke="green" />
<text x="23.95" y="167.5" font-size="3" stroke="blue">R out</text>
</g>
<g id="top_hold" fill="none" stroke="black" stroke-width="0.1">
<rect x="5" y="195" width="107.0" height="47.9" stroke="black" />
<rect x="8.0" y="214.45" width="3.0" height="9.0" stroke="green" />
<rect x="106.0" y="214.45" width="3.0" height="9.0" stroke="green" />
<text x="53.5" y="218.95" font-size="3" stroke="blue">T hold</text>
</g>
<g id="top_run" fill="none" stroke="black" stroke-width="0.1">
<rect x="115" y="197" width="113.0" height="42.0" stroke="black" />
<rect x="118.0" y="194.0" width="107.0" height="47.9" stroke="red" />
<rect x="121.0" y="213.5" width="3.0" height="9.0" stroke="green" />
<rect x="219.0" y="213.5" width="3.0" height="9.0" stroke="green" />
<text x="166.5" y="218.0" font-size="3" stroke="blue">T run</text>
</g>
<g id="top_out" fill="none" stroke="black" stroke-width="0.1">
<rect x="160" y="110" width="119.0" height="47.9" stroke="black" />
<rect x="163.0" y="113.0" width="113.0" height="42.0" stroke="red" />
<rect x="166.0" y="110" width="107.0" height="47.9" stroke="red" />
<rect x="169.0" y="129.45" width="3.0" height="9.0" stroke="green" />
<rect x="267.0" y="129.45" width="3.0" height="9.0" stroke="green" />
<text x="214.5" y="133.95" font-size="3" stroke="blue">T out</text>
</g>
<g id="bottom_hold" fill="none" stroke="black" stroke-width="0.1">
<rect x="5" y="245" width="104.0" height="47.9" stroke="black" />
<rect x="8.0" y="264.45" width="3.0" height="9.0" stroke="green" />
<rect x="103.0" y="264.45" width="3.0" height="9.0" stroke="green" />
<text x="52.0" y="268.95" font-size="3" stroke="blue">B hold</text>
</g>
<g id="bottom_run" fill="none" stroke="black" stroke-width="0.1">
<rect x="112" y="247" width="110.0" height="42.0" stroke="black" />
<rect x="115.0" y="244.0" width="104.0" height="47.9" stroke="red" />
<rect x="118.0" y="263.5" width="3.0" height="9.0" stroke="green" />
<rect x="213.0" y="263.5" width="3.0" height="9.0" stroke="green" />
<text x="162.0" y="268.0" font-size="3" stroke="blue">B run</text>
</g>
<g id="bottom_out" fill="none" stroke="black" stroke-width="0.1">
<rect x="230" y="160" width="47.9" height="116.0" stroke="black" />
<rect x="233.0" y="163.0" width="42.0" height="110.0" stroke="red" />
<rect x="230" y="166.0" width="47.9" height="104.0" stroke="red" />
<rect x="249.45" y="169.0" width="9.0" height="3.0" stroke="green" />
<rect x="249.45" y="264.0" width="9.0" height="3.0" stroke="green" />
<text x="253.95" y="213.0" font-size="3" stroke="blue">B out</text>
</g>
</svg>